<?xml version="1.0" encoding="utf-8"?>
<!-- Generator: Adobe Illustrator 16.0.0, SVG Export Plug-In . SVG Version: 6.00 Build 0)  -->
<!DOCTYPE svg PUBLIC "-//W3C//DTD SVG 1.1//EN" "http://www.w3.org/Graphics/SVG/1.1/DTD/svg11.dtd">
<svg version="1.1" id="Layer_1" xmlns="http://www.w3.org/2000/svg" xmlns:xlink="http://www.w3.org/1999/xlink" x="0px" y="0px"
	 width="216px" height="108px" viewBox="0 0 216 108" enable-background="new 0 0 216 108" xml:space="preserve">
<g>
	<path d="M55.667,68.464v-4.279h7.677V51.956h4.279v12.229h8.01v4.279h-8.01v26.289h-4.279V68.464H55.667z"/>
	<path d="M78.994,58.572c0-0.733,0.245-1.345,0.735-1.834c0.487-0.489,1.099-0.734,1.833-0.734c0.733,0,1.345,0.245,1.834,0.734
		c0.49,0.489,0.733,1.101,0.733,1.834s-0.244,1.345-0.733,1.835c-0.489,0.488-1.101,0.732-1.834,0.732
		c-0.735,0-1.346-0.244-1.833-0.732C79.239,59.917,78.994,59.306,78.994,58.572z M79.361,64.185h4.279v30.568h-4.279V64.185z"/>
	<path d="M88.041,64.185h4.402v2.75c0.979-1.304,2.313-2.354,4.004-3.148s3.455-1.191,5.289-1.191c2.404,0,4.575,0.58,6.511,1.741
		c1.935,1.162,3.536,2.701,4.799,4.617c1.223-1.916,2.883-3.455,4.982-4.617c2.1-1.161,4.371-1.741,6.818-1.741
		c1.873,0,3.645,0.366,5.317,1.1c1.671,0.733,3.127,1.723,4.372,2.965c1.241,1.244,2.221,2.712,2.934,4.402
		c0.712,1.691,1.07,3.476,1.07,5.35l0.061,18.342H134.2l-0.062-18.342c0-1.304-0.244-2.527-0.733-3.668s-1.152-2.14-1.986-2.996
		c-0.837-0.855-1.815-1.528-2.935-2.018c-1.123-0.489-2.334-0.733-3.637-0.733c-1.307,0-2.52,0.244-3.639,0.733
		c-1.122,0.489-2.11,1.162-2.966,2.018c-0.854,0.856-1.528,1.855-2.018,2.996s-0.733,2.364-0.733,3.668l0.061,18.342h-4.401
		l-0.062-18.342c-0.083-1.345-0.377-2.598-0.886-3.76c-0.511-1.161-1.184-2.16-2.018-2.995c-0.836-0.836-1.803-1.487-2.904-1.957
		c-1.1-0.468-2.284-0.703-3.546-0.703c-1.264,0-2.457,0.266-3.576,0.795c-1.122,0.529-2.111,1.232-2.966,2.109
		s-1.528,1.875-2.018,2.996s-0.733,2.292-0.733,3.515l0.06,18.342h-4.401L88.041,64.185z"/>
	<path d="M146.793,79.406c0,1.712,0.327,3.333,0.979,4.861c0.651,1.528,1.549,2.864,2.688,4.004c1.143,1.143,2.477,2.039,4.004,2.69
		c1.531,0.652,3.15,0.979,4.862,0.979s3.331-0.326,4.859-0.979c1.53-0.651,2.864-1.548,4.006-2.69
		c0.813-0.814,1.508-1.752,2.077-2.812h4.709l-0.184,0.489c-0.857,2.039-2.049,3.822-3.577,5.35
		c-1.528,1.529-3.312,2.731-5.349,3.607c-2.04,0.876-4.219,1.314-6.542,1.314s-4.504-0.438-6.542-1.314
		c-2.039-0.876-3.82-2.078-5.35-3.607c-1.527-1.527-2.732-3.311-3.607-5.35c-0.877-2.037-1.313-4.219-1.313-6.542
		s0.437-4.503,1.313-6.541c0.875-2.037,2.08-3.82,3.607-5.35c1.529-1.528,3.311-2.729,5.35-3.607
		c2.038-0.876,4.219-1.313,6.542-1.313s4.502,0.438,6.542,1.313c2.036,0.878,3.82,2.079,5.349,3.607
		c1.528,1.529,2.72,3.312,3.577,5.35c0.732,1.672,1.162,3.424,1.284,5.258h-29.226C146.814,78.571,146.793,78.999,146.793,79.406z
		 M168.192,70.542c-1.142-1.141-2.476-2.037-4.006-2.689c-1.528-0.652-3.147-0.979-4.859-0.979s-3.331,0.326-4.862,0.979
		c-1.527,0.652-2.861,1.549-4.004,2.689c-0.977,0.978-1.771,2.079-2.383,3.301h22.438C169.904,72.621,169.129,71.52,168.192,70.542z
		"/>
	<path d="M179.869,51.956h4.279v42.797h-4.279V51.956z"/>
	<path d="M188.061,58.572c0-0.733,0.244-1.345,0.734-1.834c0.488-0.489,1.1-0.734,1.833-0.734c0.735,0,1.347,0.245,1.834,0.734
		c0.49,0.489,0.735,1.101,0.735,1.834s-0.245,1.345-0.735,1.835c-0.487,0.488-1.099,0.732-1.834,0.732
		c-0.733,0-1.345-0.244-1.833-0.732C188.305,59.917,188.061,59.306,188.061,58.572z M188.429,64.185h4.279v30.568h-4.279V64.185z"/>
</g>
<g>
	<g>
		<defs>
			<path id="SVGID_1_" d="M31.326,79.407c-3.695-21.608,3.728-29.401,3.728-29.401C8.769,40.355,8.999,11.78,8.999,11.78
				c17.997,6.667,34.176,23.969,34.176,23.969l4.002,2.256c16.014-12.369,21.045,3.268,21.045,3.268l13.827,7.515
				c0,0-14.475-5.565-15.589-4.081c-1.115,1.484-7.145,2.412-7.145,2.412s-14.38,4.268-14.103,12.805
				c0.278,8.536-13.361,19.484-13.361,19.484"/>
		</defs>
		<clipPath id="SVGID_2_">
			<use xlink:href="#SVGID_1_"  overflow="visible"/>
		</clipPath>
		<g clip-path="url(#SVGID_2_)">
			<g>
				<path fill="#244790" d="M31.326,79.407c-3.695-21.608,3.728-29.401,3.728-29.401C8.769,40.355,8.999,11.78,8.999,11.78
					c17.997,6.667,34.176,23.969,34.176,23.969l4.002,2.256c16.014-12.369,21.045,3.268,21.045,3.268l13.827,7.515
					c0,0-14.475-5.565-15.589-4.081c-1.115,1.484-7.145,2.412-7.145,2.412s-14.38,4.268-14.103,12.805
					c0.278,8.536-13.361,19.484-13.361,19.484"/>
				<g>
					<path fill-rule="evenodd" clip-rule="evenodd" fill="#1994CD" d="M9.081,13.596c0,0,23.153,7.044,31.315,29.686
						c0.54,1.503-3.169,5.251-5.506,6.915c-0.8-0.259-9.897-2.672-17.627-12.663C13.098,32.151,10.044,23.582,9.081,13.596z"/>
					
						<linearGradient id="SVGID_3_" gradientUnits="userSpaceOnUse" x1="16.2612" y1="37.1147" x2="28.1796" y2="25.1963" gradientTransform="matrix(1.0065 0.011 -0.0114 0.9992 0.6694 -0.0352)">
						<stop  offset="0" style="stop-color:#1994CD;stop-opacity:0"/>
						<stop  offset="0.0593" style="stop-color:#1D87C2;stop-opacity:0.0614"/>
						<stop  offset="0.1778" style="stop-color:#2173B1;stop-opacity:0.1841"/>
						<stop  offset="0.3029" style="stop-color:#2264A5;stop-opacity:0.3135"/>
						<stop  offset="0.4345" style="stop-color:#22589C;stop-opacity:0.4498"/>
						<stop  offset="0.5755" style="stop-color:#235096;stop-opacity:0.5958"/>
						<stop  offset="0.7327" style="stop-color:#234A92;stop-opacity:0.7585"/>
						<stop  offset="0.9387" style="stop-color:#234991;stop-opacity:0.9717"/>
						<stop  offset="1" style="stop-color:#244790"/>
					</linearGradient>
					<path fill-rule="evenodd" clip-rule="evenodd" fill="url(#SVGID_3_)" d="M9.083,13.495c0,0,23.215,7.061,31.396,29.76
						c0.544,1.507-3.245,5.273-5.588,6.941c-0.801-0.26-9.853-2.689-17.604-12.703C13.111,32.097,10.048,23.505,9.083,13.495z"/>
				</g>
				<linearGradient id="SVGID_4_" gradientUnits="userSpaceOnUse" x1="34.7476" y1="67.5938" x2="40.682" y2="71.02">
					<stop  offset="0.3113" style="stop-color:#244790"/>
					<stop  offset="1" style="stop-color:#1994CD"/>
				</linearGradient>
				<path fill-rule="evenodd" clip-rule="evenodd" fill="url(#SVGID_4_)" d="M45.225,60.157c0,0,0.299,2.957-2.734,7.673
					c-2.498,3.886-6.417,8.227-10.639,11.577c0,0,1.939-10.449,3.963-13.652C38.902,60.864,45.225,60.157,45.225,60.157z"/>
				<linearGradient id="SVGID_5_" gradientUnits="userSpaceOnUse" x1="61.0864" y1="48.124" x2="61.0864" y2="44.749">
					<stop  offset="0.3491" style="stop-color:#1994CD"/>
					<stop  offset="0.4039" style="stop-color:#1C8AC5"/>
					<stop  offset="0.6029" style="stop-color:#216CAC"/>
					<stop  offset="0.7749" style="stop-color:#22589C"/>
					<stop  offset="0.9114" style="stop-color:#234B93"/>
					<stop  offset="0.9953" style="stop-color:#244790"/>
				</linearGradient>
				<path fill-rule="evenodd" clip-rule="evenodd" fill="url(#SVGID_5_)" d="M56.537,48.124c0,0,2.601-0.978,2.778-1.006
					c0.176-0.028,5.01-0.851,6.216-1.712c0.945-0.678-4.809-0.823-5.782-0.474C58.778,45.28,56.537,48.124,56.537,48.124z"/>
				<path fill="#FFFFFF" d="M31.784,74.458c0,1.103-0.894,1.996-1.997,1.996l0,0c-1.102,0-1.996-0.894-1.996-1.996l0,0
					c0-1.103,0.895-1.998,1.996-1.998l0,0C30.89,72.46,31.784,73.355,31.784,74.458L31.784,74.458z"/>
				<path fill="#FFFFFF" d="M37.703,75.63c0,0.955-0.775,1.731-1.732,1.731l0,0c-0.958,0-1.733-0.776-1.733-1.731l0,0
					c0-0.959,0.776-1.733,1.733-1.733l0,0C36.928,73.896,37.703,74.671,37.703,75.63L37.703,75.63z"/>
				<path fill="#FFFFFF" d="M34.958,71.091c0,0.954-0.776,1.731-1.733,1.731l0,0c-0.958,0-1.732-0.777-1.732-1.731l0,0
					c0-0.959,0.775-1.734,1.732-1.734l0,0C34.182,69.356,34.958,70.132,34.958,71.091L34.958,71.091z"/>
				<path fill="#FFFFFF" d="M30.698,67.394c0,0.957-0.775,1.731-1.732,1.731l0,0c-0.958,0-1.733-0.774-1.733-1.731l0,0
					c0-0.957,0.775-1.733,1.733-1.733l0,0C29.922,65.66,30.698,66.437,30.698,67.394L30.698,67.394z"/>
				<path fill="#FFFFFF" d="M40.271,71.57c0,0.957-0.775,1.733-1.732,1.733l0,0c-0.957,0-1.732-0.776-1.732-1.733l0,0
					c0-0.959,0.776-1.734,1.732-1.734l0,0C39.496,69.836,40.271,70.611,40.271,71.57L40.271,71.57z"/>
				<path fill="#FFFFFF" d="M37.619,67.708c0,0.783-0.635,1.417-1.418,1.417l0,0c-0.784,0-1.417-0.634-1.417-1.417l0,0
					c0-0.783,0.634-1.417,1.417-1.417l0,0C36.983,66.291,37.619,66.925,37.619,67.708L37.619,67.708z"/>
				<path fill="#FFFFFF" d="M34.141,65.375c0,0.783-0.635,1.418-1.418,1.418l0,0c-0.783,0-1.418-0.635-1.418-1.418l0,0
					c0-0.783,0.635-1.416,1.418-1.416l0,0C33.505,63.959,34.141,64.592,34.141,65.375L34.141,65.375z"/>
				<path fill="#FFFFFF" d="M42.474,67.938c0,0.782-0.635,1.418-1.418,1.418l0,0c-0.783,0-1.418-0.636-1.418-1.418l0,0
					c0-0.784,0.635-1.417,1.418-1.417l0,0C41.838,66.521,42.474,67.154,42.474,67.938L42.474,67.938z"/>
				<path fill="#FFFFFF" d="M45.534,64.202c0,0.522-0.424,0.945-0.947,0.945l0,0c-0.522,0-0.947-0.423-0.947-0.945l0,0
					c0-0.523,0.425-0.946,0.947-0.946l0,0C45.109,63.256,45.534,63.679,45.534,64.202L45.534,64.202z"/>
				<path fill="#FFFFFF" d="M36.866,61.72c0,0.279-0.225,0.503-0.502,0.503l0,0c-0.277,0-0.502-0.224-0.502-0.503l0,0
					c0-0.276,0.225-0.502,0.502-0.502l0,0C36.641,61.218,36.866,61.443,36.866,61.72L36.866,61.72z"/>
				<path fill="#FFFFFF" d="M34.233,59.978c0,0.277-0.226,0.501-0.503,0.501l0,0c-0.276,0-0.501-0.224-0.501-0.501l0,0
					c0-0.278,0.225-0.502,0.501-0.502l0,0C34.007,59.476,34.233,59.699,34.233,59.978L34.233,59.978z"/>
				<path fill="#FFFFFF" d="M33.019,57.849c0,0.278-0.225,0.501-0.503,0.501l0,0c-0.276,0-0.501-0.223-0.501-0.501l0,0
					c0-0.278,0.225-0.501,0.501-0.501l0,0C32.794,57.348,33.019,57.57,33.019,57.849L33.019,57.849z"/>
				<path fill="#FFFFFF" d="M39.354,62.429c0,0.278-0.225,0.504-0.503,0.504l0,0c-0.276,0-0.501-0.226-0.501-0.504l0,0
					c0-0.277,0.225-0.501,0.501-0.501l0,0C39.129,61.928,39.354,62.151,39.354,62.429L39.354,62.429z"/>
				<path fill="#FFFFFF" d="M41.842,62.535c0,0.277-0.225,0.501-0.502,0.501l0,0c-0.277,0-0.502-0.224-0.502-0.501l0,0
					c0-0.278,0.225-0.503,0.502-0.503l0,0C41.617,62.032,41.842,62.257,41.842,62.535L41.842,62.535z"/>
				<path fill="#FFFFFF" d="M44.218,62.223c0,0.277-0.225,0.504-0.503,0.504l0,0c-0.276,0-0.501-0.227-0.501-0.504l0,0
					c0-0.277,0.225-0.501,0.501-0.501l0,0C43.993,61.722,44.218,61.945,44.218,62.223L44.218,62.223z"/>
				<path fill="#FFFFFF" d="M39.354,61.307c0,0.158-0.129,0.287-0.288,0.287l0,0c-0.159,0-0.288-0.129-0.288-0.287l0,0
					c0-0.16,0.128-0.288,0.288-0.288l0,0C39.224,61.019,39.354,61.146,39.354,61.307L39.354,61.307z"/>
				<path fill="#FFFFFF" d="M39.283,60.608c0,0.078-0.064,0.144-0.144,0.144l0,0c-0.079,0-0.145-0.065-0.145-0.144l0,0
					c0-0.078,0.065-0.143,0.145-0.143l0,0C39.219,60.466,39.283,60.53,39.283,60.608L39.283,60.608z"/>
				<path fill="#FFFFFF" d="M37.46,60.157c0,0.08-0.064,0.146-0.145,0.146l0,0c-0.08,0-0.144-0.065-0.144-0.146l0,0
					c0-0.08,0.064-0.144,0.144-0.144l0,0C37.396,60.014,37.46,60.077,37.46,60.157L37.46,60.157z"/>
				<path fill="#FFFFFF" d="M35.857,59.088c0,0.078-0.064,0.143-0.144,0.143l0,0c-0.079,0-0.144-0.064-0.144-0.143l0,0
					c0-0.078,0.065-0.144,0.144-0.144l0,0C35.793,58.944,35.857,59.01,35.857,59.088L35.857,59.088z"/>
				<path fill="#FFFFFF" d="M34.639,57.348c0,0.078-0.064,0.143-0.145,0.143l0,0c-0.079,0-0.144-0.064-0.144-0.143l0,0
					c0-0.08,0.065-0.146,0.144-0.146l0,0C34.574,57.202,34.639,57.268,34.639,57.348L34.639,57.348z"/>
				<path fill="#FFFFFF" d="M34.513,55.748c0,0.08-0.063,0.146-0.144,0.146l0,0c-0.079,0-0.144-0.065-0.144-0.146l0,0
					c0-0.08,0.064-0.144,0.144-0.144l0,0C34.45,55.604,34.513,55.668,34.513,55.748L34.513,55.748z"/>
				<path fill="#FFFFFF" d="M34.685,52.796c0,0.079-0.064,0.144-0.145,0.144l0,0c-0.079,0-0.143-0.064-0.143-0.144l0,0
					c0-0.08,0.064-0.146,0.143-0.146l0,0C34.621,52.65,34.685,52.716,34.685,52.796L34.685,52.796z"/>
				<path fill="#FFFFFF" d="M34.494,54.13c0,0.079-0.065,0.144-0.144,0.144l0,0c-0.079,0-0.144-0.064-0.144-0.144l0,0
					c0-0.079,0.065-0.144,0.144-0.144l0,0C34.429,53.986,34.494,54.051,34.494,54.13L34.494,54.13z"/>
				<path fill="#FFFFFF" d="M41.193,60.642c0,0.08-0.064,0.145-0.144,0.145l0,0c-0.08,0-0.144-0.064-0.144-0.145l0,0
					c0-0.078,0.064-0.144,0.144-0.144l0,0C41.129,60.498,41.193,60.563,41.193,60.642L41.193,60.642z"/>
				<path fill="#FFFFFF" d="M42.925,60.396c0,0.078-0.064,0.143-0.144,0.143l0,0c-0.079,0-0.145-0.064-0.145-0.143l0,0
					c0-0.081,0.065-0.146,0.145-0.146l0,0C42.861,60.25,42.925,60.315,42.925,60.396L42.925,60.396z"/>
				<path fill="#FFFFFF" d="M44.362,59.978c0,0.077-0.064,0.143-0.144,0.143l0,0c-0.079,0-0.144-0.065-0.144-0.143l0,0
					c0-0.079,0.065-0.144,0.144-0.144l0,0C44.297,59.834,44.362,59.898,44.362,59.978L44.362,59.978z"/>
				<path fill="#FFFFFF" d="M41.481,61.307c0,0.158-0.129,0.287-0.289,0.287l0,0c-0.159,0-0.288-0.129-0.288-0.287l0,0
					c0-0.16,0.128-0.288,0.288-0.288l0,0C41.353,61.019,41.481,61.146,41.481,61.307L41.481,61.307z"/>
				<path fill="#FFFFFF" d="M35.246,59.376c0,0.158-0.129,0.286-0.288,0.286l0,0c-0.16,0-0.289-0.128-0.289-0.286l0,0
					c0-0.158,0.129-0.288,0.289-0.288l0,0C35.117,59.088,35.246,59.218,35.246,59.376L35.246,59.376z"/>
				<path fill="#FFFFFF" d="M43.502,61.129c0,0.161-0.13,0.289-0.289,0.289l0,0c-0.159,0-0.289-0.128-0.289-0.289l0,0
					c0-0.158,0.129-0.286,0.289-0.286l0,0C43.373,60.843,43.502,60.971,43.502,61.129L43.502,61.129z"/>
				<path fill="#FFFFFF" d="M44.89,60.475c0,0.158-0.129,0.288-0.288,0.288l0,0c-0.159,0-0.288-0.13-0.288-0.288l0,0
					c0-0.159,0.129-0.29,0.288-0.29l0,0C44.761,60.185,44.89,60.315,44.89,60.475L44.89,60.475z"/>
				<path fill="#FFFFFF" d="M37.315,60.843c0,0.158-0.128,0.286-0.289,0.286l0,0c-0.158,0-0.288-0.128-0.288-0.286l0,0
					c0-0.16,0.13-0.288,0.288-0.288l0,0C37.187,60.555,37.315,60.683,37.315,60.843L37.315,60.843z"/>
				<path fill="#FFFFFF" d="M34.019,57.49c0,0.159-0.129,0.289-0.289,0.289l0,0c-0.158,0-0.288-0.13-0.288-0.289l0,0
					c0-0.16,0.13-0.288,0.288-0.288l0,0C33.89,57.202,34.019,57.33,34.019,57.49L34.019,57.49z"/>
				<path fill="#FFFFFF" d="M33.792,55.534c0,0.159-0.129,0.288-0.288,0.288l0,0c-0.159,0-0.288-0.129-0.288-0.288l0,0
					c0-0.158,0.129-0.286,0.288-0.286l0,0C33.663,55.248,33.792,55.376,33.792,55.534L33.792,55.534z"/>
				<path fill="#FFFFFF" d="M34.019,52.363c0,0.159-0.129,0.287-0.289,0.287l0,0c-0.159,0-0.288-0.128-0.288-0.287l0,0
					c0-0.16,0.129-0.288,0.288-0.288l0,0C33.89,52.075,34.019,52.203,34.019,52.363L34.019,52.363z"/>
				<path fill="#FFFFFF" d="M34.019,53.942c0,0.159-0.129,0.287-0.289,0.287l0,0c-0.159,0-0.288-0.128-0.288-0.287l0,0
					c0-0.158,0.129-0.287,0.288-0.287l0,0C33.89,53.655,34.019,53.784,34.019,53.942L34.019,53.942z"/>
				<path fill="#FFFFFF" d="M45.88,61.277c0,0.277-0.225,0.503-0.502,0.503l0,0c-0.277,0-0.502-0.226-0.502-0.503l0,0
					c0-0.276,0.225-0.502,0.502-0.502l0,0C45.655,60.775,45.88,61.001,45.88,61.277L45.88,61.277z"/>
				<path fill="#FFFFFF" d="M32.856,55.247c0,0.276-0.225,0.501-0.501,0.501l0,0c-0.278,0-0.503-0.225-0.503-0.501l0,0
					c0-0.278,0.225-0.503,0.503-0.503l0,0C32.631,54.744,32.856,54.969,32.856,55.247L32.856,55.247z"/>
				<path fill="#FFFFFF" d="M33.225,53.483c0,0.276-0.224,0.503-0.502,0.503l0,0c-0.277,0-0.501-0.227-0.501-0.503l0,0
					c0-0.276,0.224-0.502,0.501-0.502l0,0C33,52.981,33.225,53.207,33.225,53.483L33.225,53.483z"/>
				<path fill="#FFFFFF" d="M32.885,60.843c0,0.366-0.298,0.664-0.665,0.664l0,0c-0.367,0-0.665-0.298-0.665-0.664l0,0
					c0-0.366,0.298-0.666,0.665-0.666l0,0C32.587,60.177,32.885,60.477,32.885,60.843L32.885,60.843z"/>
				<path fill="#FFFFFF" d="M31.574,58.35c0,0.369-0.298,0.666-0.667,0.666l0,0c-0.894,0-0.665-0.061-0.665-0.666l0,0
					c0-0.366,0.299-0.663,0.665-0.663l0,0C31.275,57.687,31.574,57.983,31.574,58.35L31.574,58.35z"/>
				<path fill="#FFFFFF" d="M35.904,63.256c0,0.522-0.424,0.946-0.946,0.946l0,0c-0.523,0-0.948-0.424-0.948-0.946l0,0
					c0-0.523,0.425-0.948,0.948-0.948l0,0C35.48,62.308,35.904,62.732,35.904,63.256L35.904,63.256z"/>
				<path fill="#FFFFFF" d="M42.474,64.904c0,0.523-0.425,0.949-0.948,0.949l0,0c-0.522,0-0.946-0.426-0.946-0.949l0,0
					c0-0.522,0.424-0.945,0.946-0.945l0,0C42.049,63.959,42.474,64.382,42.474,64.904L42.474,64.904z"/>
				<path fill="#FFFFFF" d="M39.139,64.473c0,0.6-0.486,1.085-1.085,1.085l0,0c-0.6,0-1.085-0.485-1.085-1.085l0,0
					c0-0.601,0.486-1.087,1.085-1.087l0,0C38.653,63.386,39.139,63.872,39.139,64.473L39.139,64.473z"/>
				<path fill="#FFFFFF" d="M31.304,62.308c0,0.599-0.485,1.084-1.085,1.084l0,0c-0.6,0-1.085-0.485-1.085-1.084l0,0
					c0-0.599,0.486-1.086,1.085-1.086l0,0C30.819,61.222,31.304,61.709,31.304,62.308L31.304,62.308z"/>
			</g>
			<path fill="none" stroke="#244790" stroke-width="0.2807" stroke-miterlimit="10" d="M34.89,50.196"/>
		</g>
	</g>
	<g>
		<g>
			<path fill-rule="evenodd" clip-rule="evenodd" fill="#8AC645" d="M37.502,16.949c1.755,7.703,5.08,14.228,9.095,20.442
				c0.406,0.628,0.585,0.606,0.585,0.606c-0.785,2.605,0.45,5.97,2.459,7.436c2.164,1.575,4.006,2.744,6.855,2.724
				c-0.744,2.278-1.292,3.579-2.707,5.293c-2.292,2.777-5.069,4.917-8.304,6.618c-1.806,0.948-3.513,1.354-5.445,1.282
				c-3.152-0.124-6-1.731-6.201-4.873c-0.249-3.913,1.917-6.812,5.629-9.218c1.279-0.827,1.95-1.796,2.682-2.873
				c0.809-1.191,0.622-2.445-0.132-3.714c-0.832-1.398-1.838-2.731-2.877-3.88c-1.801-1.991-2.358-4.229-2.562-6.701
				C36.225,25.808,36.289,21.55,37.502,16.949z"/>
		</g>
	</g>
	<linearGradient id="SVGID_6_" gradientUnits="userSpaceOnUse" x1="36.3838" y1="29.9194" x2="47.1792" y2="29.9194">
		<stop  offset="0.3632" style="stop-color:#8AC645"/>
		<stop  offset="0.3773" style="stop-color:#87C344"/>
		<stop  offset="0.6634" style="stop-color:#6DA037"/>
		<stop  offset="0.8762" style="stop-color:#5B8A2E"/>
		<stop  offset="0.9906" style="stop-color:#54822A"/>
	</linearGradient>
	<path fill-rule="evenodd" clip-rule="evenodd" fill="url(#SVGID_6_)" d="M47.179,38.002c0,0-4.059,2.26-4.546,4.817
		c0,0,0.056-2.558-3.729-6.256c0,0-1.594-1.784-2.116-4.86c-0.759-4.468-0.414-11.141,0.737-14.684l1.292,4.662l1.548,4.158
		l1.677,3.663l2.748,5.016l1.619,2.612L47.179,38.002z"/>
	<path fill="#FFFFFF" d="M34.685,52.796c0,0.079-0.064,0.144-0.145,0.144l0,0c-0.079,0-0.143-0.064-0.143-0.144l0,0
		c0-0.08,0.064-0.146,0.143-0.146l0,0C34.621,52.65,34.685,52.716,34.685,52.796L34.685,52.796z"/>
	<path fill="#FFFFFF" d="M34.494,54.13c0,0.079-0.065,0.144-0.144,0.144l0,0c-0.079,0-0.144-0.064-0.144-0.144l0,0
		c0-0.079,0.065-0.144,0.144-0.144l0,0C34.429,53.986,34.494,54.051,34.494,54.13L34.494,54.13z"/>
	<path fill="#FFFFFF" d="M34.019,53.942c0,0.159-0.129,0.287-0.289,0.287l0,0c-0.159,0-0.288-0.128-0.288-0.287l0,0
		c0-0.158,0.129-0.287,0.288-0.287l0,0C33.89,53.655,34.019,53.784,34.019,53.942L34.019,53.942z"/>
</g>
<g>
	<path d="M196.225,53.133c0-0.147,0.051-0.27,0.152-0.368c0.102-0.098,0.229-0.146,0.381-0.146c0.15,0,0.277,0.049,0.379,0.146
		c0.102,0.099,0.152,0.221,0.152,0.368c0,0.146-0.051,0.27-0.152,0.367s-0.229,0.146-0.379,0.146c-0.152,0-0.279-0.049-0.381-0.146
		S196.225,53.28,196.225,53.133z M196.301,55.068h0.887v6.125h-0.887V55.068z"/>
	<path d="M198.543,58.119c0-0.465,0.092-0.902,0.273-1.311s0.432-0.766,0.748-1.072s0.686-0.547,1.109-0.723
		c0.422-0.176,0.873-0.263,1.355-0.263s0.934,0.087,1.355,0.263c0.424,0.176,0.793,0.416,1.109,0.723s0.566,0.664,0.748,1.072
		s0.273,0.846,0.273,1.311s-0.092,0.902-0.273,1.311s-0.432,0.766-0.748,1.072s-0.686,0.547-1.109,0.723
		c-0.422,0.176-0.873,0.264-1.355,0.264s-0.934-0.088-1.355-0.264c-0.424-0.176-0.793-0.416-1.109-0.723s-0.566-0.664-0.748-1.072
		S198.543,58.584,198.543,58.119z M199.432,58.119c0,0.344,0.066,0.668,0.203,0.975c0.135,0.305,0.32,0.572,0.557,0.801
		s0.514,0.41,0.83,0.539c0.316,0.131,0.652,0.197,1.008,0.197s0.691-0.066,1.008-0.197c0.316-0.129,0.594-0.311,0.83-0.539
		s0.422-0.496,0.557-0.801c0.137-0.307,0.203-0.631,0.203-0.975s-0.066-0.668-0.203-0.975c-0.135-0.307-0.32-0.572-0.557-0.803
		c-0.236-0.229-0.514-0.408-0.83-0.539c-0.316-0.129-0.652-0.195-1.008-0.195s-0.691,0.066-1.008,0.195
		c-0.316,0.131-0.594,0.311-0.83,0.539c-0.236,0.23-0.422,0.496-0.557,0.803C199.498,57.451,199.432,57.775,199.432,58.119z"/>
</g>
</svg>
